<?xml version="1.0" encoding="UTF-8" ?><svg xmlns="http://www.w3.org/2000/svg" version="1.1"><circle cx="250" cy="400" r="5" fill="green" /><text font-size="36" x="254" y="400" fill="green">A</text><line x1="250" y1="400" x2="23" y2="-45" stroke="black" stroke-width="1" /><line x1="250" y1="400" x2="476" y2="-45" stroke="black" stroke-width="1" /><circle cx="400" cy="250" r="5" fill="green" /><text font-size="36" x="404" y="250" fill="green">B</text><line x1="400" y1="250" x2="-45" y2="476" stroke="black" stroke-width="1" /><line x1="400" y1="250" x2="-45" y2="23" stroke="black" stroke-width="1" /><circle cx="100" cy="150" r="5" fill="green" /><text font-size="36" x="104" y="150" fill="green">C</text><circle cx="100" cy="150" r="143" stroke="black" stroke-width="1" fill="none" /><line x1="182" y1="268" x2="94" y2="94" stroke="red" stroke-width="1" /><line x1="242" y1="169" x2="94" y2="94" stroke="red" stroke-width="1" /><line x1="241" y1="178" x2="242" y2="169" stroke="red" stroke-width="1" /><line x1="220" y1="230" x2="233" y2="205" stroke="red" stroke-width="1" /><line x1="241" y1="178" x2="233" y2="205" stroke="red" stroke-width="1" /><line x1="202" y1="252" x2="182" y2="268" stroke="red" stroke-width="1" /><line x1="220" y1="230" x2="202" y2="252" stroke="red" stroke-width="1" /><circle cx="190" cy="200" r="5" fill="red" /><text font-size="36" x="194" y="200" fill="red">P?</text></svg>